  <svg width="38" height="38" viewBox="0 0 38 38" fill="none" xmlns="http://www.w3.org/2000/svg">
                    <rect opacity="0.1" width="38" height="38" rx="19" fill="#23286B" />
                    <path
                      d="M24 14H29V24H24V26C24 26.2652 24.1054 26.5196 24.2929 26.7071C24.4804 
                                    26.8946 24.7348 27 25 27H27V29H24.5C23.95 29 23 28.55 23 28C23 28.55 22.05 29 21.5 29H19V27H21C21.2652 27 21.5196 26.8946 21.7071 26.7071C21.8946 26.5196 22 26.2652 22 26V12C22 11.7348 21.8946 11.4804 21.7071 11.2929C21.5196 11.1054 21.2652 11 21 11H19V9H21.5C22.05 9 23 9.45 23 10C23 9.45 23.95 9 24.5 9H27V11H25C24.7348 11 24.4804 11.1054 24.2929 11.2929C24.1054 11.4804 24 11.7348 24 12V14ZM9 14H20V16H11V22H20V24H9V14ZM27 22V16H24V22H27ZM15.5 19C15.5 18.6022 15.342 18.2206 15.0607 17.9393C14.7794 17.658 14.3978 17.5 14 17.5C13.6022 17.5 13.2206 17.658 12.9393 17.9393C12.658 18.2206 12.5 18.6022 12.5 19C12.5 19.3978 12.658 19.7794 12.9393 20.0607C13.2206 20.342 13.6022 20.5 14 20.5C14.3978 20.5 14.7794 20.342 15.0607 20.0607C15.342 19.7794 15.5 19.3978 15.5 19V19ZM20 17.89C19.39 17.33 18.44 17.38 17.88 18C17.32 18.6 17.37 19.55 18 20.11C18.55 20.63 19.43 20.63 20 20.11V17.89V17.89Z"
                      fill="#313967" />
                  </svg>